<svg xmlns="http://www.w3.org/2000/svg" width="30" height="30" viewBox="0 0 30 30" fill="none">
<path d="M8.63337 23.4321H20.966V24.6653C20.966 24.9924 20.836 25.306 20.6047 25.5373C20.3735 25.7686 20.0598 25.8985 19.7327 25.8985H9.86663C9.53955 25.8985 9.22587 25.7686 8.99458 25.5373C8.7633 25.306 8.63337 24.9924 8.63337 24.6653V23.4321ZM20.3493 4.93359C21.8212 4.93359 23.2328 5.51828 24.2735 6.55902C25.3143 7.59976 25.899 9.0113 25.899 10.4831V16.6493C25.899 18.1211 25.3143 19.5327 24.2735 20.5734C23.2328 21.6142 21.8212 22.1988 20.3493 22.1988H9.25C7.77814 22.1988 6.36656 21.6142 5.32579 20.5734C4.28503 19.5327 3.70034 18.1211 3.70034 16.6493V10.4831C3.70034 9.0113 4.28503 7.59976 5.32579 6.55902C6.36656 5.51828 7.77814 4.93359 9.25 4.93359H20.3493ZM20.3493 7.03009H9.25C8.33417 7.03009 7.45586 7.39389 6.80827 8.04146C6.16069 8.68903 5.79688 9.56733 5.79688 10.4831V16.6493C5.79688 17.5651 6.16069 18.4434 6.80827 19.091C7.45586 19.7385 8.33417 20.1023 9.25 20.1023H20.3493C21.2652 20.1023 22.1435 19.7385 22.7911 19.091C23.4386 18.4434 23.8025 17.5651 23.8025 16.6493V10.4831C23.8025 9.56733 23.4386 8.68903 22.7911 8.04146C22.1435 7.39389 21.2652 7.03009 20.3493 7.03009ZM27.7489 9.86652C28.076 9.86652 28.3897 9.99645 28.6209 10.2277C28.8522 10.459 28.9821 10.7727 28.9821 11.0998V16.0327C28.9821 16.3597 28.8522 16.6734 28.6209 16.9047C28.3897 17.136 28.076 17.2659 27.7489 17.2659C27.4218 17.2659 27.1081 17.136 26.8768 16.9047C26.6456 16.6734 26.5156 16.3597 26.5156 16.0327V11.0998C26.5156 10.7727 26.6456 10.459 26.8768 10.2277C27.1081 9.99645 27.4218 9.86652 27.7489 9.86652ZM1.85045 9.86652C2.17753 9.86652 2.49121 9.99645 2.72249 10.2277C2.95377 10.459 3.08371 10.7727 3.08371 11.0998V16.0327C3.08371 16.3597 2.95377 16.6734 2.72249 16.9047C2.49121 17.136 2.17753 17.2659 1.85045 17.2659C1.52337 17.2659 1.20968 17.136 0.978401 16.9047C0.74712 16.6734 0.617188 16.3597 0.617188 16.0327V11.0998C0.617188 10.7727 0.74712 10.459 0.978401 10.2277C1.20968 9.99645 1.52337 9.86652 1.85045 9.86652Z" fill="white"/>
<path d="M13.4607 14.3354H11.5943C11.3506 14.3354 11.1825 14.0962 11.2692 13.873L13.1238 9.09857C13.1489 9.03398 13.1934 8.97838 13.2514 8.93916C13.3094 8.89993 13.3782 8.87892 13.4487 8.87891H16.5783C16.8252 8.87891 16.9935 9.12427 16.9003 9.34859L15.8205 11.9482H17.8533C18.1523 11.9482 18.3118 12.2938 18.1146 12.5142L13.1305 18.0843C12.8882 18.3551 12.439 18.1204 12.533 17.7722L13.4607 14.3354Z" fill="white"/>
</svg>