<svg xmlns="http://www.w3.org/2000/svg" width="20" height="20" viewBox="0 0 20 20" fill="none">
  <path d="M4.06093 15.8096C3.25624 15.0062 3.15094 13.6321 3.81393 11.9096C4.07003 11.2557 4.39113 10.6278 4.76812 10.035L4.79412 9.99212L4.76812 9.94922C4.39104 9.35691 4.07111 8.7301 3.81263 8.07724C3.15094 6.35216 3.25624 4.97807 4.06093 4.17338C4.50422 3.73009 5.14122 3.49219 5.91211 3.49219C7.0405 3.49219 8.42109 3.99528 9.83807 4.88317L9.88097 4.90917L9.92257 4.88317C11.3383 3.99658 12.7188 3.49219 13.8472 3.49219C14.6181 3.49219 15.2551 3.73009 15.6971 4.17338C16.5005 4.97807 16.6071 6.35346 15.9441 8.07594C15.6865 8.72894 15.367 9.35579 14.9899 9.94792L14.9626 9.99212L14.9886 10.0337C15.3851 10.6668 15.7101 11.2986 15.9441 11.907C16.6071 13.6295 16.5018 15.0049 15.6971 15.8096C15.2551 16.2529 14.6181 16.4908 13.8485 16.4908C12.7188 16.4908 11.3396 15.9864 9.92257 15.0998L9.87837 15.0738L9.83677 15.0998C8.41979 15.9877 7.0392 16.4921 5.91081 16.4921C5.13992 16.4921 4.50292 16.2542 4.06093 15.8109V15.8096ZM14.8586 12.3256C14.6996 11.9185 14.5119 11.5232 14.297 11.1426L14.2372 11.0386L14.1644 11.1335C13.2544 12.3113 12.1975 13.3669 11.0211 14.2769L10.9262 14.351L11.0302 14.4095C12.0662 14.9906 13.0581 15.3299 13.8472 15.3299C14.2931 15.3299 14.6441 15.2207 14.8742 14.9893C15.1134 14.7514 15.2213 14.3757 15.2148 13.9233C15.2083 13.4683 15.0887 12.9223 14.8586 12.3243V12.3256ZM9.83287 13.6321L9.87837 13.6659L9.92517 13.6321C11.3137 12.6378 12.5312 11.4242 13.53 10.0389L13.5638 9.99212L13.53 9.94662C12.5329 8.55953 11.3151 7.34528 9.92517 6.35216L9.87837 6.31966L9.83287 6.35346C8.44393 7.34772 7.22597 8.56128 6.22671 9.94662L6.19291 9.99212L6.22671 10.0389C7.22432 11.426 8.44252 12.6403 9.83287 13.6334V13.6321ZM14.8755 4.99627C14.6428 4.76487 14.2918 4.65568 13.8472 4.65568C13.0568 4.65568 12.0662 4.99367 11.0302 5.57607L10.9262 5.63457L11.0211 5.70737C12.1988 6.61736 13.2557 7.67295 14.1644 8.85073L14.2372 8.94563L14.2957 8.84163C14.5193 8.44254 14.7117 8.04604 14.8586 7.65865C15.0887 7.06325 15.2096 6.51726 15.2148 6.06226C15.2213 5.60857 15.1134 5.23417 14.8755 4.99627ZM4.89812 7.65995C5.05802 8.06684 5.24652 8.46204 5.46101 8.84293L5.52081 8.94563L5.59361 8.85073C6.50214 7.6728 7.55812 6.61638 8.73568 5.70737L8.83188 5.63457L8.72788 5.57607C7.69049 4.99367 6.6999 4.65568 5.90951 4.65568C5.46361 4.65568 5.11262 4.76487 4.88252 4.99627C4.64462 5.23417 4.53672 5.60857 4.54322 6.06226C4.54842 6.51726 4.66932 7.06325 4.89812 7.65995ZM4.89812 12.3256C4.66802 12.9223 4.54842 13.4683 4.54322 13.9233C4.53672 14.3757 4.64332 14.7514 4.88122 14.9893C5.11392 15.2207 5.46491 15.3299 5.90951 15.3299C6.6999 15.3299 7.69049 14.9919 8.72658 14.4095L8.83058 14.351L8.73568 14.2769C7.55812 13.3679 6.50214 12.3114 5.59361 11.1335L5.51951 11.0386L5.46101 11.1426C5.24522 11.5235 5.05802 11.9187 4.89812 12.3256Z" fill="#456CFF"/>
  <path d="M10.4382 11.3476C10.2161 11.4398 9.97473 11.4759 9.73542 11.4524C9.49612 11.4289 9.26632 11.3467 9.06643 11.2131C8.86655 11.0795 8.70277 10.8985 8.58964 10.6863C8.47651 10.4742 8.41754 10.2373 8.41797 9.99688C8.41823 9.73227 8.49034 9.47269 8.6266 9.24586C8.76286 9.01903 8.95816 8.83346 9.19165 8.70896C9.42514 8.58445 9.68806 8.52569 9.95234 8.53894C10.2166 8.5522 10.4723 8.63696 10.6922 8.7842C10.9121 8.93144 11.0878 9.13562 11.2007 9.37494C11.3136 9.61427 11.3594 9.87975 11.3332 10.1431C11.3069 10.4064 11.2097 10.6576 11.0519 10.87C10.894 11.0824 10.6814 11.2479 10.4369 11.3489L10.4382 11.3476Z" fill="#456CFF"/>
</svg>