<svg width="80" height="80" viewBox="0 0 80 80" fill="none" xmlns="http://www.w3.org/2000/svg">
<path d="M67.1931 33.5539H61.471V20.2397C61.471 9.08909 52.4134 0.0214844 41.269 0.0214844C30.1244 0.0214844 21.0564 9.08909 21.0564 20.2397V33.5539H15.3392C12.5829 33.5539 10.3486 35.7893 10.3486 38.5476V75.0012C10.3486 77.7643 12.5829 79.9999 15.3392 79.9999H67.198C69.9551 79.9999 72.1841 77.7643 72.1841 75.0012V38.5476C72.1837 35.7889 69.9504 33.5539 67.1931 33.5539ZM44.0716 57.7243V65.6843C44.0716 66.04 43.7775 66.3397 43.4165 66.3397H39.1264C38.7609 66.3397 38.4665 66.0398 38.4665 65.6843V57.7243C36.4509 56.6929 35.0546 54.6254 35.0546 52.2021C35.0546 48.7733 37.837 45.9845 41.2641 45.9845C44.6963 45.9845 47.4788 48.7733 47.4788 52.2021C47.4837 54.6255 46.0873 56.6929 44.0716 57.7243ZM53.7182 33.5539H28.8192V20.5694C28.8192 13.7012 34.4093 8.10835 41.2737 8.10835C48.1381 8.10835 53.718 13.7012 53.718 20.5694L53.7182 33.5539Z" fill="black"/>
</svg>
