<svg xmlns="http://www.w3.org/2000/svg" width="14" height="14" viewBox="0 0 14 14" fill="none">
<path d="M10.2083 1.16602C11.0943 1.16602 11.8125 1.88424 11.8125 2.77018V11.2285C11.8125 12.1145 11.0943 12.8327 10.2083 12.8327H3.79167C2.90573 12.8327 2.1875 12.1145 2.1875 11.2285V2.77018C2.1875 1.88424 2.90573 1.16602 3.79167 1.16602H10.2083ZM8.16667 10.6452H5.83333C5.7173 10.6452 5.60602 10.6913 5.52397 10.7733C5.44193 10.8554 5.39583 10.9667 5.39583 11.0827C5.39583 11.1987 5.44193 11.31 5.52397 11.392C5.60602 11.4741 5.7173 11.5202 5.83333 11.5202H8.16667C8.2827 11.5202 8.39398 11.4741 8.47603 11.392C8.55807 11.31 8.60417 11.1987 8.60417 11.0827C8.60417 10.9667 8.55807 10.8554 8.47603 10.7733C8.39398 10.6913 8.2827 10.6452 8.16667 10.6452ZM10.2083 2.04102H3.79167C3.69591 2.04102 3.60109 2.05988 3.51263 2.09652C3.42416 2.13316 3.34378 2.18687 3.27607 2.25458C3.20836 2.32229 3.15465 2.40268 3.118 2.49114C3.08136 2.57961 3.0625 2.67443 3.0625 2.77018V9.33268H10.9375V2.77018C10.9375 2.67443 10.9186 2.57961 10.882 2.49114C10.8454 2.40268 10.7916 2.32229 10.7239 2.25458C10.6562 2.18687 10.5758 2.13316 10.4874 2.09652C10.3989 2.05988 10.3041 2.04102 10.2083 2.04102Z" fill="#456CFF"/>
</svg>