<svg xmlns="http://www.w3.org/2000/svg" width="14" height="14" viewBox="0 0 14 14" fill="none">
  <g clip-path="url(#clip0_10894_14293)">
    <path d="M8.62695 8.23184C8.62695 8.68027 8.26328 9.04395 7.81348 9.04395H6.18652C5.73672 9.04395 5.37305 8.68027 5.37305 8.23184V7.45117H1.75V12.3266C1.75 12.7682 2.11094 13.125 2.55801 13.125H11.442C11.8891 13.125 12.25 12.7682 12.25 12.3266V7.45117H8.62695V8.23184ZM11.1125 3.75566V1.94141C11.1125 1.35352 10.5506 0.875 9.85879 0.875H4.14121C3.44941 0.875 2.8875 1.35352 2.8875 1.94141V3.7543H0.875V7.02734H5.37305V5.79688C5.37305 5.34844 5.73672 4.98477 6.18652 4.98477H7.81348C8.26328 4.98477 8.62695 5.34844 8.62695 5.79688V7.02734H13.125V3.75566H11.1125ZM10.2375 3.75566H3.7625V1.94141C3.7625 1.76367 3.93203 1.61875 4.14121 1.61875H9.85742C10.0666 1.61875 10.2361 1.76367 10.2361 1.94141V3.75566H10.2375Z" fill="#456CFF"/>
  </g>
  <defs>
    <clipPath id="clip0_10894_14293">
      <rect width="14" height="14" fill="white"/>
    </clipPath>
  </defs>
</svg>