<svg width="17" height="12" viewBox="0 0 17 12" fill="none" xmlns="http://www.w3.org/2000/svg">
<path d="M2.66602 11.2383C1.83203 11.2383 1.17806 11.0081 0.704102 10.5479C0.234701 10.083 0 9.43359 0 8.59961V2.63184C0 1.80241 0.243815 1.15755 0.731445 0.697266C1.22363 0.232422 1.86849 0 2.66602 0H9.80957C10.6436 0 11.2952 0.232422 11.7646 0.697266C12.2386 1.15755 12.4756 1.80241 12.4756 2.63184V8.59961C12.4756 9.43359 12.2386 10.083 11.7646 10.5479C11.2952 11.0081 10.6436 11.2383 9.80957 11.2383H2.66602ZM2.85742 10.2061H9.61816C10.1787 10.2061 10.6117 10.0602 10.917 9.76855C11.2223 9.47689 11.375 9.03483 11.375 8.44238V2.7959C11.375 2.20345 11.2223 1.76139 10.917 1.46973C10.6117 1.1735 10.1787 1.02539 9.61816 1.02539H2.85742C2.29688 1.02539 1.86393 1.1735 1.55859 1.46973C1.25326 1.76139 1.10059 2.20345 1.10059 2.7959V8.44238C1.10059 9.03483 1.25326 9.47689 1.55859 9.76855C1.86393 10.0602 2.29688 10.2061 2.85742 10.2061ZM12.3184 3.70508L15.0596 1.3877C15.1963 1.27376 15.3376 1.18262 15.4834 1.11426C15.6292 1.04134 15.7728 1.00488 15.9141 1.00488C16.2148 1.00488 16.4564 1.10514 16.6387 1.30566C16.821 1.50618 16.9121 1.76595 16.9121 2.08496V9.15332C16.9121 9.47233 16.821 9.7321 16.6387 9.93262C16.4564 10.1331 16.2148 10.2334 15.9141 10.2334C15.7728 10.2334 15.6292 10.1992 15.4834 10.1309C15.3376 10.0579 15.1963 9.96452 15.0596 9.85059L12.3184 7.52637V6.23438L15.5723 8.9209C15.6042 8.93913 15.6315 8.95736 15.6543 8.97559C15.6816 8.98926 15.709 8.99609 15.7363 8.99609C15.8138 8.99609 15.8525 8.94368 15.8525 8.83887V2.39941C15.8525 2.29004 15.8138 2.23535 15.7363 2.23535C15.709 2.23535 15.6816 2.24447 15.6543 2.2627C15.6315 2.27637 15.6042 2.2946 15.5723 2.31738L12.3184 5.00391V3.70508Z" fill="black"/>
</svg>

