<svg width="16" height="14" viewBox="0 0 16 14" fill="none" xmlns="http://www.w3.org/2000/svg">
<path d="M10.6719 13.3047C10.3281 13.3047 10.013 13.2188 9.72656 13.0469C9.44531 12.8802 9.21875 12.6536 9.04688 12.3672C8.875 12.0859 8.78906 11.7734 8.78906 11.4297C8.78906 11.0859 8.875 10.7734 9.04688 10.4922C9.21875 10.2057 9.44531 9.97917 9.72656 9.8125C10.013 9.64062 10.3281 9.55469 10.6719 9.55469C11.0156 9.55469 11.3281 9.64062 11.6094 9.8125C11.8958 9.97917 12.1224 10.2057 12.2891 10.4922C12.4609 10.7734 12.5469 11.0859 12.5469 11.4297C12.5469 11.7734 12.4609 12.0859 12.2891 12.3672C12.1224 12.6536 11.8958 12.8802 11.6094 13.0469C11.3281 13.2188 11.0156 13.3047 10.6719 13.3047ZM10.6719 12.3438C10.9271 12.3438 11.1432 12.2552 11.3203 12.0781C11.4974 11.901 11.5859 11.6849 11.5859 11.4297C11.5859 11.1693 11.4974 10.9531 11.3203 10.7812C11.1432 10.6042 10.9271 10.5156 10.6719 10.5156C10.4167 10.5156 10.2005 10.6042 10.0234 10.7812C9.84635 10.9531 9.75781 11.1693 9.75781 11.4297C9.75781 11.6849 9.84635 11.901 10.0234 12.0781C10.2005 12.2552 10.4167 12.3438 10.6719 12.3438ZM9.42969 10.7969V12.0547H0.625C0.453125 12.0547 0.304688 11.9948 0.179688 11.875C0.0598958 11.75 0 11.6016 0 11.4297C0 11.2526 0.0598958 11.1042 0.179688 10.9844C0.304688 10.8594 0.453125 10.7969 0.625 10.7969H9.42969ZM15.1406 10.7969C15.3021 10.7969 15.4427 10.8594 15.5625 10.9844C15.6823 11.1042 15.7422 11.2526 15.7422 11.4297C15.7422 11.6016 15.6823 11.75 15.5625 11.875C15.4427 11.9948 15.3021 12.0547 15.1406 12.0547H12.0312V10.7969H15.1406ZM5.15625 8.53906C4.8125 8.53906 4.4974 8.45312 4.21094 8.28125C3.92969 8.10938 3.70312 7.88281 3.53125 7.60156C3.36458 7.3151 3.28125 7 3.28125 6.65625C3.28125 6.3125 3.36458 6 3.53125 5.71875C3.70312 5.43229 3.92969 5.20573 4.21094 5.03906C4.4974 4.86719 4.8125 4.78125 5.15625 4.78125C5.5 4.78125 5.8125 4.86719 6.09375 5.03906C6.38021 5.20573 6.60677 5.43229 6.77344 5.71875C6.94531 6 7.03125 6.3125 7.03125 6.65625C7.03125 7 6.94531 7.3151 6.77344 7.60156C6.60677 7.88281 6.38021 8.10938 6.09375 8.28125C5.8125 8.45312 5.5 8.53906 5.15625 8.53906ZM5.15625 7.57031C5.41667 7.57031 5.63281 7.48177 5.80469 7.30469C5.98177 7.1276 6.07031 6.91146 6.07031 6.65625C6.07031 6.39583 5.98177 6.17969 5.80469 6.00781C5.63281 5.83073 5.41667 5.74219 5.15625 5.74219C4.90104 5.74219 4.6849 5.83073 4.50781 6.00781C4.33073 6.17969 4.24219 6.39583 4.24219 6.65625C4.24219 6.91146 4.33073 7.1276 4.50781 7.30469C4.6849 7.48177 4.90104 7.57031 5.15625 7.57031ZM0.59375 6.02344H3.8125V7.28125H0.59375C0.4375 7.28125 0.299479 7.22135 0.179688 7.10156C0.0598958 6.98177 0 6.83333 0 6.65625C0 6.47917 0.0598958 6.33073 0.179688 6.21094C0.299479 6.08594 0.4375 6.02344 0.59375 6.02344ZM15.1094 6.02344C15.2865 6.02344 15.4349 6.08594 15.5547 6.21094C15.6797 6.33073 15.7422 6.47917 15.7422 6.65625C15.7422 6.83333 15.6797 6.98177 15.5547 7.10156C15.4349 7.22135 15.2865 7.28125 15.1094 7.28125H6.39844V6.02344H15.1094ZM10.6719 3.75781C10.3281 3.75781 10.013 3.67448 9.72656 3.50781C9.44531 3.33594 9.21875 3.10938 9.04688 2.82812C8.875 2.54167 8.78906 2.22656 8.78906 1.88281C8.78906 1.53906 8.875 1.22656 9.04688 0.945312C9.21875 0.658854 9.44531 0.429688 9.72656 0.257812C10.013 0.0859375 10.3281 0 10.6719 0C11.0156 0 11.3281 0.0859375 11.6094 0.257812C11.8958 0.429688 12.1224 0.658854 12.2891 0.945312C12.4609 1.22656 12.5469 1.53906 12.5469 1.88281C12.5469 2.22656 12.4609 2.54167 12.2891 2.82812C12.1224 3.10938 11.8958 3.33594 11.6094 3.50781C11.3281 3.67448 11.0156 3.75781 10.6719 3.75781ZM10.6719 2.79688C10.9271 2.79688 11.1432 2.70833 11.3203 2.53125C11.4974 2.34896 11.5859 2.13021 11.5859 1.875C11.5859 1.61979 11.4974 1.40365 11.3203 1.22656C11.1432 1.04948 10.9271 0.960938 10.6719 0.960938C10.4167 0.960938 10.2005 1.04948 10.0234 1.22656C9.84635 1.40365 9.75781 1.61979 9.75781 1.875C9.75781 2.13021 9.84635 2.34896 10.0234 2.53125C10.2005 2.70833 10.4167 2.79688 10.6719 2.79688ZM9.46875 1.25781V2.51562H0.625C0.453125 2.51562 0.304688 2.45573 0.179688 2.33594C0.0598958 2.21094 0 2.0599 0 1.88281C0 1.71094 0.0598958 1.5651 0.179688 1.44531C0.304688 1.32031 0.453125 1.25781 0.625 1.25781H9.46875ZM15.1406 1.25781C15.3021 1.25781 15.4427 1.32031 15.5625 1.44531C15.6823 1.5651 15.7422 1.71094 15.7422 1.88281C15.7422 2.0599 15.6823 2.21094 15.5625 2.33594C15.4427 2.45573 15.3021 2.51562 15.1406 2.51562H11.9219V1.25781H15.1406Z" fill="black"/>
</svg>

