<svg width="21" height="17" viewBox="16 13 21 17" fill="none" xmlns="http://www.w3.org/2000/svg">
    <path
      d="M19.9453 27.6641C18.9349 27.6641 18.1484 27.3698 17.5859 26.7812C17.0234 26.1927 16.7422 25.3646 16.7422 24.2969V16.4453C16.7422 15.3776 17.0234 14.5495 17.5859 13.9609C18.1484 13.3672 18.9349 13.0703 19.9453 13.0703H31.875C32.9427 13.0703 33.7708 13.3672 34.3594 13.9609C34.9531 14.5495 35.25 15.3776 35.25 16.4453V22.9766L33.7109 21.4297V16.5234C33.7109 15.9193 33.5417 15.4505 33.2031 15.1172C32.8698 14.7786 32.401 14.6094 31.7969 14.6094H20.1953C19.5859 14.6094 19.1146 14.7786 18.7812 15.1172C18.4479 15.4505 18.2812 15.9193 18.2812 16.5234V24.2109C18.2812 24.8203 18.4479 25.2917 18.7812 25.625C19.1146 25.9583 19.5859 26.125 20.1953 26.125H30.0703L30.0469 27.3203C30.0469 27.3828 30.0469 27.4375 30.0469 27.4844C30.0521 27.5365 30.0599 27.5964 30.0703 27.6641H19.9453ZM20.4375 17.4531C20.2344 17.4531 20.0599 17.3802 19.9141 17.2344C19.7734 17.0885 19.7031 16.9193 19.7031 16.7266C19.7031 16.5286 19.7734 16.3568 19.9141 16.2109C20.0599 16.0651 20.2344 15.9922 20.4375 15.9922C20.6354 15.9922 20.8047 16.0651 20.9453 16.2109C21.0859 16.3568 21.1562 16.5286 21.1562 16.7266C21.1562 16.9193 21.0859 17.0885 20.9453 17.2344C20.8047 17.3802 20.6354 17.4531 20.4375 17.4531ZM22.7344 17.4531C22.5365 17.4531 22.3646 17.3802 22.2188 17.2344C22.0781 17.0885 22.0078 16.9193 22.0078 16.7266C22.0078 16.5286 22.0781 16.3568 22.2188 16.2109C22.3646 16.0651 22.5365 15.9922 22.7344 15.9922C22.9375 15.9922 23.1094 16.0651 23.25 16.2109C23.3906 16.3568 23.4609 16.5286 23.4609 16.7266C23.4609 16.9193 23.3906 17.0885 23.25 17.2344C23.1094 17.3802 22.9375 17.4531 22.7344 17.4531ZM25.0391 17.4531C24.8359 17.4531 24.6641 17.3802 24.5234 17.2344C24.3828 17.0885 24.3125 16.9193 24.3125 16.7266C24.3125 16.5286 24.3828 16.3568 24.5234 16.2109C24.6641 16.0651 24.8359 15.9922 25.0391 15.9922C25.2422 15.9922 25.4141 16.0651 25.5547 16.2109C25.6953 16.3568 25.7656 16.5286 25.7656 16.7266C25.7656 16.9193 25.6953 17.0885 25.5547 17.2344C25.4141 17.3802 25.2422 17.4531 25.0391 17.4531ZM34.9531 29.6641C34.7656 29.7422 34.5755 29.7422 34.3828 29.6641C34.1953 29.5911 34.0651 29.4609 33.9922 29.2734L32.8828 26.5156L31.7656 27.6484C31.6562 27.7682 31.526 27.8021 31.375 27.75C31.224 27.7031 31.151 27.5938 31.1562 27.4219L31.2344 21.2656C31.2344 21.1094 31.2995 21.0052 31.4297 20.9531C31.5651 20.901 31.6875 20.9323 31.7969 21.0469L36.0391 25.375C36.1536 25.5 36.1797 25.6302 36.1172 25.7656C36.0547 25.8958 35.9427 25.9609 35.7812 25.9609L34.1719 26.0078L35.3516 28.7188C35.4297 28.9062 35.4297 29.0911 35.3516 29.2734C35.2734 29.4609 35.1406 29.5911 34.9531 29.6641Z"
      fill="black"
    />
  </svg>
