<svg width="268" height="250" viewBox="0 0 268 250" fill="none" xmlns="http://www.w3.org/2000/svg">
<g clip-path="url(#clip0_11919_8345)">
<path d="M42 -258.725H226C249.044 -258.725 267.725 -240.044 267.725 -217V208C267.725 231.044 249.044 249.725 226 249.725H42C18.9559 249.725 0.275424 231.044 0.275391 208V-217C0.275395 -240.044 18.9559 -258.725 42 -258.725Z" fill="#181818" stroke="#B2B2B2" stroke-width="0.55"/>
<path d="M42.0898 -256.627H225.908C247.848 -256.627 265.633 -238.842 265.633 -216.902V207.903C265.633 229.843 247.847 247.628 225.908 247.628H42.0898C20.1504 247.628 2.36527 229.843 2.36523 207.903V-216.902C2.36523 -238.842 20.1503 -256.627 42.0898 -256.627Z" fill="#181818" stroke="#DFDFDF" stroke-width="0.55"/>
</g>
<defs>
<clipPath id="clip0_11919_8345">
<rect width="268" height="250" fill="white"/>
</clipPath>
</defs>
</svg>
