<svg width="14" height="14" viewBox="0 0 14 14" fill="none" xmlns="http://www.w3.org/2000/svg">
  <path fill-rule="evenodd" clip-rule="evenodd" d="M6.48154 0.777771C3.33147 0.777771 0.777832 3.33142 0.777832 6.48148C0.777832 9.63153 3.33147 12.1852 6.48154 12.1852C7.86988 12.1852 9.14237 11.6891 10.1314 10.8646L12.4445 13.1777L13.1778 12.4444L10.8647 10.1313C11.6892 9.14227 12.1852 7.8698 12.1852 6.48148C12.1852 3.3314 9.6316 0.777771 6.48154 0.777771ZM1.81487 6.48148C1.81487 3.90416 3.90421 1.81481 6.48154 1.81481C9.05886 1.81481 11.1482 3.90414 11.1482 6.48148C11.1482 9.05881 9.05888 11.1481 6.48154 11.1481C3.90421 11.1481 1.81487 9.05879 1.81487 6.48148Z" fill="#2842AD"/>
</svg>