<svg width="16" height="16" viewBox="0 0 16 16" fill="none" xmlns="http://www.w3.org/2000/svg">
<path d="M2.4082 7.58594C2.17122 7.58594 1.97298 7.50846 1.81348 7.35352C1.65853 7.19401 1.58105 6.99349 1.58105 6.75195C1.58105 6.51042 1.65853 6.31217 1.81348 6.15723C1.97298 5.99772 2.17122 5.91797 2.4082 5.91797H2.90039L4.88281 6.06836L3.3584 4.62598L1.48535 2.75293C1.40332 2.6709 1.33952 2.57975 1.29395 2.47949C1.25293 2.37923 1.23242 2.27214 1.23242 2.1582C1.23242 1.90299 1.31217 1.69564 1.47168 1.53613C1.63574 1.37207 1.84766 1.29004 2.10742 1.29004C2.33984 1.29004 2.53581 1.37207 2.69531 1.53613L4.56152 3.42285L6.01074 4.94043L5.86035 2.97168V2.54785C5.86035 2.30632 5.93783 2.11035 6.09277 1.95996C6.25228 1.80501 6.45052 1.72754 6.6875 1.72754C6.92904 1.72754 7.12956 1.80501 7.28906 1.95996C7.44857 2.11491 7.52832 2.31087 7.52832 2.54785V6.24609C7.52832 6.66992 7.40983 7.00033 7.17285 7.2373C6.94043 7.46973 6.61458 7.58594 6.19531 7.58594H2.4082ZM9.27832 14.4834C9.04134 14.4834 8.8431 14.4059 8.68359 14.251C8.52409 14.096 8.44434 13.8978 8.44434 13.6562V9.90332C8.44434 9.48405 8.56055 9.1582 8.79297 8.92578C9.02539 8.69336 9.35352 8.57715 9.77734 8.57715H13.6123C13.8493 8.57715 14.0452 8.65462 14.2002 8.80957C14.3597 8.96452 14.4395 9.16504 14.4395 9.41113C14.4395 9.64811 14.3597 9.84408 14.2002 9.99902C14.0452 10.154 13.8493 10.2314 13.6123 10.2314H13.0654L11.0762 10.0879L12.6074 11.5303L14.5146 13.4375C14.5921 13.5195 14.6536 13.6084 14.6992 13.7041C14.7448 13.8044 14.7676 13.9137 14.7676 14.0322C14.7676 14.2829 14.6855 14.488 14.5215 14.6475C14.3574 14.8115 14.1478 14.8936 13.8926 14.8936C13.6556 14.8936 13.4596 14.8138 13.3047 14.6543L11.4043 12.7402L9.96191 11.2158L10.1123 13.1846V13.6562C10.1123 13.8978 10.0326 14.096 9.87305 14.251C9.71354 14.4059 9.5153 14.4834 9.27832 14.4834Z" fill="black"/>
</svg>
