<svg width="16" height="13" viewBox="0 0 16 13" fill="none" xmlns="http://www.w3.org/2000/svg">
    <path d="M15.25 6.35938C15.25 6.55729 15.1719 6.73177 15.0156 6.88281L9.82031 12.0625C9.66927 12.2083 9.5 12.2812 9.3125 12.2812C9.11979 12.2812 8.95833 12.2161 8.82812 12.0859C8.69792 11.9609 8.63281 11.8021 8.63281 11.6094C8.63281 11.5156 8.64844 11.4271 8.67969 11.3438C8.71094 11.2552 8.75781 11.1797 8.82031 11.1172L10.5703 9.33594L13.6719 6.51562L13.8281 6.89844L11.3125 7.05469H1.42969C1.22656 7.05469 1.0599 6.98958 0.929688 6.85938C0.804688 6.72917 0.742188 6.5625 0.742188 6.35938C0.742188 6.15625 0.804688 5.98958 0.929688 5.85938C1.0599 5.72917 1.22656 5.66406 1.42969 5.66406H11.3125L13.8281 5.82031L13.6719 6.21094L10.5703 3.38281L8.82031 1.60156C8.75781 1.53906 8.71094 1.46615 8.67969 1.38281C8.64844 1.29427 8.63281 1.20312 8.63281 1.10938C8.63281 0.916667 8.69792 0.757812 8.82812 0.632812C8.95833 0.502604 9.11979 0.4375 9.3125 0.4375C9.40625 0.4375 9.49479 0.455729 9.57812 0.492188C9.66667 0.528646 9.7526 0.588542 9.83594 0.671875L15.0156 5.83594C15.1719 5.98698 15.25 6.16146 15.25 6.35938Z" fill="#FF8800"/>
    </svg>
    