<svg width="24" height="25" viewBox="0 0 24 25" fill="none" xmlns="http://www.w3.org/2000/svg">
    <path d="M12 24.4922C10.3516 24.4922 8.80469 24.1797 7.35938 23.5547C5.91406 22.9375 4.64453 22.082 3.55078 20.9883C2.45703 19.8945 1.59766 18.625 0.972656 17.1797C0.355469 15.7344 0.046875 14.1875 0.046875 12.5391C0.046875 10.8906 0.355469 9.34375 0.972656 7.89844C1.59766 6.45312 2.45703 5.18359 3.55078 4.08984C4.64453 2.98828 5.91406 2.12891 7.35938 1.51172C8.80469 0.894531 10.3516 0.585938 12 0.585938C13.6484 0.585938 15.1953 0.894531 16.6406 1.51172C18.0859 2.12891 19.3555 2.98828 20.4492 4.08984C21.543 5.18359 22.3984 6.45312 23.0156 7.89844C23.6406 9.34375 23.9531 10.8906 23.9531 12.5391C23.9531 14.1875 23.6406 15.7344 23.0156 17.1797C22.3984 18.625 21.543 19.8945 20.4492 20.9883C19.3555 22.082 18.0859 22.9375 16.6406 23.5547C15.1953 24.1797 13.6484 24.4922 12 24.4922ZM12 22.5C13.375 22.5 14.6641 22.2422 15.8672 21.7266C17.0703 21.2109 18.1289 20.4961 19.043 19.582C19.957 18.668 20.6719 17.6094 21.1875 16.4062C21.7031 15.2031 21.9609 13.9141 21.9609 12.5391C21.9609 11.1641 21.7031 9.875 21.1875 8.67188C20.6719 7.46094 19.957 6.40234 19.043 5.49609C18.1289 4.58203 17.0703 3.86719 15.8672 3.35156C14.6641 2.83594 13.375 2.57812 12 2.57812C10.625 2.57812 9.33594 2.83594 8.13281 3.35156C6.92969 3.86719 5.87109 4.58203 4.95703 5.49609C4.04297 6.40234 3.32812 7.46094 2.8125 8.67188C2.29688 9.875 2.03906 11.1641 2.03906 12.5391C2.03906 13.9141 2.29688 15.2031 2.8125 16.4062C3.32812 17.6094 4.04297 18.668 4.95703 19.582C5.87109 20.4961 6.92969 21.2109 8.13281 21.7266C9.33594 22.2422 10.625 22.5 12 22.5ZM7.08984 18.4453C6.82422 18.5703 6.59375 18.5977 6.39844 18.5273C6.20312 18.457 6.07031 18.3242 6 18.1289C5.92969 17.9258 5.95703 17.6953 6.08203 17.4375L9.36328 10.7109C9.55859 10.3281 9.82812 10.0547 10.1719 9.89062L16.875 6.62109C17.2891 6.42578 17.6094 6.44531 17.8359 6.67969C18.0703 6.91406 18.0898 7.23047 17.8945 7.62891L14.625 14.3438C14.4375 14.7109 14.168 14.9805 13.8164 15.1523L7.08984 18.4453ZM12 13.9805C12.3906 13.9805 12.7266 13.8398 13.0078 13.5586C13.2891 13.2773 13.4297 12.9375 13.4297 12.5391C13.4297 12.1406 13.2891 11.8047 13.0078 11.5312C12.7266 11.25 12.3906 11.1094 12 11.1094C11.6016 11.1094 11.2617 11.25 10.9805 11.5312C10.6992 11.8047 10.5586 12.1406 10.5586 12.5391C10.5586 12.9375 10.6992 13.2773 10.9805 13.5586C11.2617 13.8398 11.6016 13.9805 12 13.9805Z" fill="black"/>
    </svg>
    