<svg width="12" height="13" viewBox="0 0 12 13" fill="none" xmlns="http://www.w3.org/2000/svg">
    <path d="M4.56445 12.1006C4.29557 12.1006 4.05859 11.9684 3.85352 11.7041L0.305664 7.18555C0.237305 7.10352 0.187174 7.02148 0.155273 6.93945C0.123372 6.85286 0.107422 6.76855 0.107422 6.68652C0.107422 6.49967 0.168945 6.34701 0.291992 6.22852C0.415039 6.10547 0.572266 6.04395 0.763672 6.04395C0.991536 6.04395 1.1875 6.1556 1.35156 6.37891L4.53711 10.5488L10.6758 0.766602C10.7578 0.638997 10.8421 0.55013 10.9287 0.5C11.0153 0.445312 11.127 0.417969 11.2637 0.417969C11.4505 0.417969 11.6009 0.474935 11.7148 0.588867C11.8288 0.702799 11.8857 0.85319 11.8857 1.04004C11.8857 1.12207 11.8721 1.2041 11.8447 1.28613C11.8174 1.36361 11.7741 1.4502 11.7148 1.5459L5.25488 11.7178C5.08626 11.973 4.85612 12.1006 4.56445 12.1006Z" fill="#00A108"/>
    </svg>
    