<svg width="15" height="14" viewBox="0 0 15 14" fill="none" xmlns="http://www.w3.org/2000/svg">
    <path
        d="M7.18262 1.31543C7.01855 1.31543 6.87956 1.25846 6.76562 1.14453C6.65169 1.0306 6.59473 0.891602 6.59473 0.727539C6.59473 0.568034 6.65169 0.431315 6.76562 0.317383C6.87956 0.198893 7.01855 0.139648 7.18262 0.139648C7.34212 0.139648 7.47884 0.198893 7.59277 0.317383C7.71126 0.431315 7.77051 0.568034 7.77051 0.727539C7.77051 0.891602 7.71126 1.0306 7.59277 1.14453C7.47884 1.25846 7.34212 1.31543 7.18262 1.31543ZM9.1377 1.63672C8.97363 1.63672 8.83464 1.57975 8.7207 1.46582C8.60677 1.35189 8.5498 1.21289 8.5498 1.04883C8.5498 0.889323 8.60677 0.752604 8.7207 0.638672C8.83464 0.520182 8.97363 0.460938 9.1377 0.460938C9.2972 0.460938 9.43392 0.520182 9.54785 0.638672C9.66634 0.752604 9.72559 0.889323 9.72559 1.04883C9.72559 1.21289 9.66634 1.35189 9.54785 1.46582C9.43392 1.57975 9.2972 1.63672 9.1377 1.63672ZM10.915 2.53223C10.751 2.53223 10.612 2.47526 10.498 2.36133C10.3841 2.2474 10.3271 2.1084 10.3271 1.94434C10.3271 1.78483 10.3841 1.64811 10.498 1.53418C10.612 1.41569 10.751 1.35645 10.915 1.35645C11.0745 1.35645 11.2113 1.41569 11.3252 1.53418C11.4437 1.64811 11.5029 1.78483 11.5029 1.94434C11.5029 2.1084 11.4437 2.2474 11.3252 2.36133C11.2113 2.47526 11.0745 2.53223 10.915 2.53223ZM12.3164 3.94043C12.1569 3.94043 12.0179 3.88346 11.8994 3.76953C11.7855 3.65104 11.7285 3.51204 11.7285 3.35254C11.7285 3.18848 11.7855 3.04948 11.8994 2.93555C12.0179 2.82161 12.1569 2.76465 12.3164 2.76465C12.4759 2.76465 12.6126 2.82161 12.7266 2.93555C12.8451 3.04948 12.9043 3.18848 12.9043 3.35254C12.9043 3.51204 12.8451 3.65104 12.7266 3.76953C12.6126 3.88346 12.4759 3.94043 12.3164 3.94043ZM13.2119 5.69043C13.0524 5.69043 12.9134 5.63346 12.7949 5.51953C12.681 5.40104 12.624 5.26204 12.624 5.10254C12.624 4.94303 12.681 4.80632 12.7949 4.69238C12.9134 4.57389 13.0524 4.51465 13.2119 4.51465C13.3714 4.51465 13.5081 4.57389 13.6221 4.69238C13.7406 4.80632 13.7998 4.94303 13.7998 5.10254C13.7998 5.26204 13.7406 5.40104 13.6221 5.51953C13.5081 5.63346 13.3714 5.69043 13.2119 5.69043ZM13.5469 7.65234C13.3874 7.65234 13.2484 7.59538 13.1299 7.48145C13.016 7.36296 12.959 7.22396 12.959 7.06445C12.959 6.90495 13.016 6.76823 13.1299 6.6543C13.2484 6.53581 13.3874 6.47656 13.5469 6.47656C13.7109 6.47656 13.8499 6.53581 13.9639 6.6543C14.0778 6.76823 14.1348 6.90495 14.1348 7.06445C14.1348 7.22396 14.0778 7.36296 13.9639 7.48145C13.8499 7.59538 13.7109 7.65234 13.5469 7.65234ZM13.2119 9.61426C13.0524 9.61426 12.9134 9.55729 12.7949 9.44336C12.681 9.32943 12.624 9.19043 12.624 9.02637C12.624 8.86686 12.681 8.73014 12.7949 8.61621C12.9134 8.49772 13.0524 8.43848 13.2119 8.43848C13.3714 8.43848 13.5081 8.49772 13.6221 8.61621C13.7406 8.73014 13.7998 8.86686 13.7998 9.02637C13.7998 9.19043 13.7406 9.32943 13.6221 9.44336C13.5081 9.55729 13.3714 9.61426 13.2119 9.61426ZM12.3164 11.3711C12.1569 11.3711 12.0179 11.3141 11.8994 11.2002C11.7855 11.0817 11.7285 10.9427 11.7285 10.7832C11.7285 10.6191 11.7855 10.4801 11.8994 10.3662C12.0179 10.2523 12.1569 10.1953 12.3164 10.1953C12.4759 10.1953 12.6126 10.2523 12.7266 10.3662C12.8451 10.4801 12.9043 10.6191 12.9043 10.7832C12.9043 10.9427 12.8451 11.0817 12.7266 11.2002C12.6126 11.3141 12.4759 11.3711 12.3164 11.3711ZM10.915 12.7725C10.751 12.7725 10.612 12.7132 10.498 12.5947C10.3841 12.4808 10.3271 12.3441 10.3271 12.1846C10.3271 12.0251 10.3841 11.8883 10.498 11.7744C10.612 11.6559 10.751 11.5967 10.915 11.5967C11.0745 11.5967 11.2113 11.6559 11.3252 11.7744C11.4437 11.8883 11.5029 12.0251 11.5029 12.1846C11.5029 12.3441 11.4437 12.4808 11.3252 12.5947C11.2113 12.7132 11.0745 12.7725 10.915 12.7725ZM9.1377 13.668C8.97363 13.668 8.83464 13.6087 8.7207 13.4902C8.60677 13.3763 8.5498 13.2396 8.5498 13.0801C8.5498 12.9206 8.60677 12.7816 8.7207 12.6631C8.83464 12.5492 8.97363 12.4922 9.1377 12.4922C9.2972 12.4922 9.43392 12.5492 9.54785 12.6631C9.66634 12.7816 9.72559 12.9206 9.72559 13.0801C9.72559 13.2396 9.66634 13.3763 9.54785 13.4902C9.43392 13.6087 9.2972 13.668 9.1377 13.668ZM7.18262 13.9893C7.01855 13.9893 6.87956 13.93 6.76562 13.8115C6.65169 13.6976 6.59473 13.5609 6.59473 13.4014C6.59473 13.2419 6.65169 13.1029 6.76562 12.9844C6.87956 12.8704 7.01855 12.8135 7.18262 12.8135C7.34212 12.8135 7.47884 12.8704 7.59277 12.9844C7.71126 13.1029 7.77051 13.2419 7.77051 13.4014C7.77051 13.5609 7.71126 13.6976 7.59277 13.8115C7.47884 13.93 7.34212 13.9893 7.18262 13.9893ZM5.22754 13.668C5.06348 13.668 4.92448 13.6087 4.81055 13.4902C4.69661 13.3763 4.63965 13.2396 4.63965 13.0801C4.63965 12.9206 4.69661 12.7816 4.81055 12.6631C4.92448 12.5492 5.06348 12.4922 5.22754 12.4922C5.38704 12.4922 5.52376 12.5492 5.6377 12.6631C5.75618 12.7816 5.81543 12.9206 5.81543 13.0801C5.81543 13.2396 5.75618 13.3763 5.6377 13.4902C5.52376 13.6087 5.38704 13.668 5.22754 13.668ZM3.4502 12.7725C3.28613 12.7725 3.14714 12.7132 3.0332 12.5947C2.91927 12.4808 2.8623 12.3441 2.8623 12.1846C2.8623 12.0251 2.91927 11.8883 3.0332 11.7744C3.14714 11.6559 3.28613 11.5967 3.4502 11.5967C3.6097 11.5967 3.74642 11.6559 3.86035 11.7744C3.97884 11.8883 4.03809 12.0251 4.03809 12.1846C4.03809 12.3441 3.97884 12.4808 3.86035 12.5947C3.74642 12.7132 3.6097 12.7725 3.4502 12.7725ZM2.04199 11.3711C1.88249 11.3711 1.74349 11.3141 1.625 11.2002C1.51107 11.0817 1.4541 10.9427 1.4541 10.7832C1.4541 10.6191 1.51107 10.4801 1.625 10.3662C1.74349 10.2523 1.88249 10.1953 2.04199 10.1953C2.2015 10.1953 2.33822 10.2523 2.45215 10.3662C2.57064 10.4801 2.62988 10.6191 2.62988 10.7832C2.62988 10.9427 2.57064 11.0817 2.45215 11.2002C2.33822 11.3141 2.2015 11.3711 2.04199 11.3711ZM1.14648 9.61426C0.986979 9.61426 0.847982 9.55729 0.729492 9.44336C0.61556 9.32943 0.558594 9.19043 0.558594 9.02637C0.558594 8.86686 0.61556 8.73014 0.729492 8.61621C0.847982 8.49772 0.986979 8.43848 1.14648 8.43848C1.31055 8.43848 1.44954 8.49772 1.56348 8.61621C1.67741 8.73014 1.73438 8.86686 1.73438 9.02637C1.73438 9.19043 1.67741 9.32943 1.56348 9.44336C1.44954 9.55729 1.31055 9.61426 1.14648 9.61426ZM0.811523 7.65234C0.652018 7.65234 0.513021 7.59538 0.394531 7.48145C0.280599 7.36296 0.223633 7.22396 0.223633 7.06445C0.223633 6.90495 0.280599 6.76823 0.394531 6.6543C0.513021 6.53581 0.652018 6.47656 0.811523 6.47656C0.971029 6.47656 1.10775 6.53581 1.22168 6.6543C1.34017 6.76823 1.39941 6.90495 1.39941 7.06445C1.39941 7.22396 1.34017 7.36296 1.22168 7.48145C1.10775 7.59538 0.971029 7.65234 0.811523 7.65234ZM1.14648 5.69043C0.986979 5.69043 0.847982 5.63346 0.729492 5.51953C0.61556 5.40104 0.558594 5.26204 0.558594 5.10254C0.558594 4.94303 0.61556 4.80632 0.729492 4.69238C0.847982 4.57389 0.986979 4.51465 1.14648 4.51465C1.31055 4.51465 1.44954 4.57389 1.56348 4.69238C1.67741 4.80632 1.73438 4.94303 1.73438 5.10254C1.73438 5.26204 1.67741 5.40104 1.56348 5.51953C1.44954 5.63346 1.31055 5.69043 1.14648 5.69043ZM2.04199 3.94043C1.88249 3.94043 1.74349 3.88346 1.625 3.76953C1.51107 3.65104 1.4541 3.51204 1.4541 3.35254C1.4541 3.18848 1.51107 3.04948 1.625 2.93555C1.74349 2.82161 1.88249 2.76465 2.04199 2.76465C2.2015 2.76465 2.33822 2.82161 2.45215 2.93555C2.57064 3.04948 2.62988 3.18848 2.62988 3.35254C2.62988 3.51204 2.57064 3.65104 2.45215 3.76953C2.33822 3.88346 2.2015 3.94043 2.04199 3.94043ZM3.4502 2.53223C3.28613 2.53223 3.14714 2.47526 3.0332 2.36133C2.91927 2.2474 2.8623 2.1084 2.8623 1.94434C2.8623 1.78483 2.91927 1.64811 3.0332 1.53418C3.14714 1.41569 3.28613 1.35645 3.4502 1.35645C3.6097 1.35645 3.74642 1.41569 3.86035 1.53418C3.97884 1.64811 4.03809 1.78483 4.03809 1.94434C4.03809 2.1084 3.97884 2.2474 3.86035 2.36133C3.74642 2.47526 3.6097 2.53223 3.4502 2.53223ZM5.22754 1.63672C5.06348 1.63672 4.92448 1.57975 4.81055 1.46582C4.69661 1.35189 4.63965 1.21289 4.63965 1.04883C4.63965 0.889323 4.69661 0.752604 4.81055 0.638672C4.92448 0.520182 5.06348 0.460938 5.22754 0.460938C5.38704 0.460938 5.52376 0.520182 5.6377 0.638672C5.75618 0.752604 5.81543 0.889323 5.81543 1.04883C5.81543 1.21289 5.75618 1.35189 5.6377 1.46582C5.52376 1.57975 5.38704 1.63672 5.22754 1.63672Z"
        fill="#FF8800" />
</svg>