<svg width="28" height="23" viewBox="0 0 28 23" fill="none" xmlns="http://www.w3.org/2000/svg">
    <path d="M5.22266 9.81641L8.04688 8.10547L5.22266 6.40625C4.99609 6.26562 4.86328 6.09375 4.82422 5.89062C4.79297 5.67969 4.82812 5.48438 4.92969 5.30469C5.03906 5.125 5.19531 5.00781 5.39844 4.95312C5.60938 4.89063 5.83984 4.9375 6.08984 5.09375L9.46484 7.20312C9.67578 7.33594 9.81641 7.51953 9.88672 7.75391C9.96484 7.98828 9.96875 8.22266 9.89844 8.45703C9.83594 8.69141 9.69141 8.87891 9.46484 9.01953L6.08984 11.1289C5.83984 11.2852 5.61328 11.3359 5.41016 11.2812C5.20703 11.2188 5.05078 11.0977 4.94141 10.918C4.83203 10.7383 4.79297 10.543 4.82422 10.332C4.86328 10.1211 4.99609 9.94922 5.22266 9.81641ZM10.168 11.1172C10.168 10.9062 10.2383 10.7266 10.3789 10.5781C10.5273 10.4297 10.707 10.3555 10.918 10.3555H15.3828C15.5938 10.3555 15.7695 10.4297 15.9102 10.5781C16.0586 10.7266 16.1328 10.9062 16.1328 11.1172C16.1328 11.3203 16.0586 11.4961 15.9102 11.6445C15.7695 11.793 15.5938 11.8672 15.3828 11.8672H10.918C10.707 11.8672 10.5273 11.793 10.3789 11.6445C10.2383 11.4961 10.168 11.3203 10.168 11.1172ZM3.86328 22.332C2.63672 22.332 1.71484 22.0273 1.09766 21.418C0.488281 20.8164 0.183594 19.9141 0.183594 18.7109V4.39062C0.183594 3.17969 0.488281 2.27344 1.09766 1.67188C1.71484 1.0625 2.63672 0.757812 3.86328 0.757812H24.1367C25.3711 0.757812 26.293 1.0625 26.9023 1.67188C27.5117 2.28125 27.8164 3.1875 27.8164 4.39062V18.7109C27.8164 19.9141 27.5117 20.8164 26.9023 21.418C26.293 22.0273 25.3711 22.332 24.1367 22.332H3.86328ZM3.88672 20.4453H24.1133C24.6914 20.4453 25.1367 20.293 25.4492 19.9883C25.7695 19.6758 25.9297 19.2148 25.9297 18.6055V4.49609C25.9297 3.88672 25.7695 3.42578 25.4492 3.11328C25.1367 2.80078 24.6914 2.64453 24.1133 2.64453H3.88672C3.30078 2.64453 2.85156 2.80078 2.53906 3.11328C2.22656 3.42578 2.07031 3.88672 2.07031 4.49609V18.6055C2.07031 19.2148 2.22656 19.6758 2.53906 19.9883C2.85156 20.293 3.30078 20.4453 3.88672 20.4453Z" fill="black"/>
    </svg>
    