<svg width="23" height="27" viewBox="0 0 23 27" fill="none" xmlns="http://www.w3.org/2000/svg">
    <path
        d="M10.3203 26.75C8.89062 26.75 7.5625 26.4883 6.33594 25.9648C5.11719 25.4414 4.05078 24.7148 3.13672 23.7852C2.22266 22.8555 1.51172 21.7773 1.00391 20.5508C0.496094 19.3164 0.242188 17.9922 0.242188 16.5781C0.242188 15.2344 0.496094 13.9492 1.00391 12.7227C1.51953 11.4961 2.23438 10.4102 3.14844 9.46484C4.0625 8.51172 5.11719 7.78516 6.3125 7.28516C6.58594 7.17578 6.82031 7.14063 7.01562 7.17969C7.21094 7.21875 7.36719 7.30469 7.48438 7.4375C7.71094 7.70313 7.70703 8.07031 7.47266 8.53906C7.29297 8.90625 7.14062 9.41797 7.01562 10.0742C6.89844 10.7227 6.83984 11.4023 6.83984 12.1133C6.83984 13.8242 7.17188 15.2891 7.83594 16.5078C8.5 17.7188 9.45312 18.6484 10.6953 19.2969C11.9453 19.9453 13.4414 20.2695 15.1836 20.2695C15.8633 20.2695 16.4727 20.2227 17.0117 20.1289C17.5586 20.0273 18.0508 19.8906 18.4883 19.7188C18.6992 19.6328 18.8906 19.6016 19.0625 19.625C19.2344 19.6406 19.3711 19.6992 19.4727 19.8008C19.582 19.918 19.6484 20.0703 19.6719 20.2578C19.6953 20.4453 19.6562 20.6641 19.5547 20.9141C19.0156 22.1406 18.2656 23.1875 17.3047 24.0547C16.3516 24.9297 15.2695 25.5977 14.0586 26.0586C12.8555 26.5195 11.6094 26.75 10.3203 26.75ZM10.3203 24.957C11.2891 24.957 12.1836 24.8203 13.0039 24.5469C13.8242 24.2812 14.5625 23.9062 15.2188 23.4219C15.8828 22.9375 16.4531 22.3828 16.9297 21.7578C16.6562 21.8203 16.3281 21.875 15.9453 21.9219C15.5703 21.9688 15.168 21.9922 14.7383 21.9922C12.7773 21.9922 11.0742 21.6133 9.62891 20.8555C8.19141 20.0898 7.08203 19.0078 6.30078 17.6094C5.51953 16.2031 5.12891 14.5352 5.12891 12.6055C5.12891 12.1133 5.16016 11.625 5.22266 11.1406C5.28516 10.6484 5.375 10.2148 5.49219 9.83984C4.78125 10.3945 4.16406 11.0234 3.64062 11.7266C3.125 12.4297 2.72656 13.1953 2.44531 14.0234C2.16406 14.8438 2.02344 15.7188 2.02344 16.6484C2.02344 17.7969 2.23047 18.875 2.64453 19.8828C3.06641 20.8828 3.65234 21.7656 4.40234 22.5312C5.16016 23.2891 6.04297 23.8828 7.05078 24.3125C8.05859 24.7422 9.14844 24.957 10.3203 24.957ZM16.6367 5C16.8164 5 16.9648 5.05469 17.082 5.16406C17.1992 5.27344 17.2578 5.41797 17.2578 5.59766C17.2578 5.79297 17.1992 5.94531 17.082 6.05469C16.9648 6.15625 16.8164 6.20703 16.6367 6.20703H12.6875C12.4922 6.20703 12.332 6.15234 12.207 6.04297C12.0898 5.93359 12.0312 5.79297 12.0312 5.62109C12.0312 5.49609 12.0547 5.38281 12.1016 5.28125C12.1562 5.17969 12.2422 5.04688 12.3594 4.88281L15.125 1.29688V1.23828H12.6172C12.4375 1.23828 12.2891 1.18359 12.1719 1.07422C12.0547 0.964844 11.9961 0.816406 11.9961 0.628906C11.9961 0.441406 12.0547 0.292969 12.1719 0.183594C12.2891 0.0742188 12.4375 0.0195312 12.6172 0.0195312H16.3672C16.5625 0.0195312 16.7227 0.0742188 16.8477 0.183594C16.9805 0.285156 17.0469 0.429688 17.0469 0.617188C17.0469 0.71875 17.0195 0.824219 16.9648 0.933594C16.9102 1.04297 16.8242 1.17969 16.707 1.34375L13.9766 4.94141V5H16.6367ZM22.1211 9.48828C22.5117 9.48828 22.707 9.67969 22.707 10.0625C22.707 10.2422 22.6523 10.3828 22.543 10.4844C22.4336 10.5859 22.293 10.6367 22.1211 10.6367H19.0742C18.8945 10.6367 18.7461 10.5859 18.6289 10.4844C18.5195 10.375 18.4648 10.2422 18.4648 10.0859C18.4648 9.96875 18.4883 9.85938 18.5352 9.75781C18.582 9.64844 18.6602 9.52344 18.7695 9.38281L20.6914 6.85156V6.80469H19.0039C18.8398 6.80469 18.7031 6.75391 18.5938 6.65234C18.4844 6.54297 18.4297 6.39453 18.4297 6.20703C18.4297 6.04297 18.4844 5.91016 18.5938 5.80859C18.7031 5.69922 18.8398 5.64453 19.0039 5.64453H21.875C22.0547 5.64453 22.2031 5.69531 22.3203 5.79688C22.4453 5.89844 22.5078 6.03125 22.5078 6.19531C22.5078 6.30469 22.4805 6.41406 22.4258 6.52344C22.3789 6.625 22.3008 6.74609 22.1914 6.88672L20.2461 9.44141V9.48828H22.1211ZM16.9531 13.4844C17.3203 13.4844 17.5039 13.668 17.5039 14.0352C17.5039 14.1992 17.4531 14.332 17.3516 14.4336C17.25 14.5352 17.1172 14.5859 16.9531 14.5859H14.2461C14.0742 14.5859 13.9336 14.5352 13.8242 14.4336C13.7227 14.332 13.6719 14.207 13.6719 14.0586C13.6719 13.9414 13.6914 13.8359 13.7305 13.7422C13.7773 13.6406 13.8555 13.5234 13.9648 13.3906L15.5938 11.2109V11.1523H14.1875C14.0312 11.1523 13.8984 11.1055 13.7891 11.0117C13.6875 10.918 13.6367 10.7812 13.6367 10.6016C13.6367 10.4375 13.6875 10.3086 13.7891 10.2148C13.8984 10.1133 14.0312 10.0625 14.1875 10.0625H16.707C16.8789 10.0625 17.0234 10.1094 17.1406 10.2031C17.2578 10.2969 17.3164 10.4258 17.3164 10.5898C17.3164 10.6914 17.293 10.7891 17.2461 10.8828C17.1992 10.9766 17.1211 11.0977 17.0117 11.2461L15.3594 13.4375V13.4844H16.9531Z"
        fill="black" />
</svg>