<svg width="28" height="23" viewBox="0 0 28 23" fill="none" xmlns="http://www.w3.org/2000/svg">
    <path d="M4.36719 22.1914C3.14062 22.1914 2.21875 21.8867 1.60156 21.2773C0.992188 20.6758 0.6875 19.7695 0.6875 18.5586V4.27344C0.6875 3.09375 0.96875 2.21094 1.53125 1.625C2.09375 1.03906 2.89062 0.746094 3.92188 0.746094H7.26172C7.64453 0.746094 7.97656 0.773437 8.25781 0.828125C8.54688 0.882813 8.80859 0.972656 9.04297 1.09766C9.28516 1.22266 9.53516 1.39453 9.79297 1.61328L10.5078 2.19922C10.8047 2.44922 11.0898 2.62891 11.3633 2.73828C11.6367 2.83984 11.9727 2.89062 12.3711 2.89062H23.6211C24.8398 2.89062 25.7578 3.19531 26.375 3.80469C26.9922 4.41406 27.3008 5.32031 27.3008 6.52344V18.5586C27.3008 19.7695 27.0078 20.6758 26.4219 21.2773C25.8359 21.8867 25.0195 22.1914 23.9727 22.1914H4.36719ZM4.39062 20.3047H23.5859C24.1641 20.3047 24.6133 20.1523 24.9336 19.8477C25.2539 19.5352 25.4141 19.0781 25.4141 18.4766V6.62891C25.4141 6.01953 25.2539 5.55859 24.9336 5.24609C24.6133 4.93359 24.1641 4.77734 23.5859 4.77734H11.8789C11.4961 4.77734 11.1602 4.75 10.8711 4.69531C10.582 4.64062 10.3164 4.55078 10.0742 4.42578C9.83203 4.30078 9.58594 4.13281 9.33594 3.92188L8.62109 3.32422C8.32422 3.07422 8.03906 2.89453 7.76562 2.78516C7.5 2.67578 7.17188 2.62109 6.78125 2.62109H4.30859C3.74609 2.62109 3.31641 2.76953 3.01953 3.06641C2.72266 3.36328 2.57422 3.80078 2.57422 4.37891V18.4648C2.57422 19.0742 2.73047 19.5352 3.04297 19.8477C3.35547 20.1523 3.80469 20.3047 4.39062 20.3047ZM1.83594 9.06641V7.29688H26.1406V9.06641H1.83594Z" fill="black"/>
    </svg>
    