<svg width="10" height="16" viewBox="0 0 10 16" fill="none" xmlns="http://www.w3.org/2000/svg">
    <path
        d="M2.46387 15.2969C1.90788 15.2969 1.45898 15.1328 1.11719 14.8047C0.775391 14.4811 0.604492 14.0527 0.604492 13.5195V2.60254C0.604492 2.06934 0.775391 1.64095 1.11719 1.31738C1.45898 0.989258 1.90788 0.825195 2.46387 0.825195H7.5293C8.08984 0.825195 8.53874 0.989258 8.87598 1.31738C9.21777 1.64095 9.38867 2.06934 9.38867 2.60254V13.5195C9.38867 14.0527 9.21777 14.4811 8.87598 14.8047C8.53874 15.1328 8.08984 15.2969 7.5293 15.2969H2.46387ZM2.60742 14.1963H7.39258C7.67969 14.1963 7.90072 14.1211 8.05566 13.9707C8.21061 13.8249 8.28809 13.6152 8.28809 13.3418V2.78027C8.28809 2.50684 8.21061 2.2972 8.05566 2.15137C7.90072 2.00098 7.67969 1.92578 7.39258 1.92578H2.60742C2.31576 1.92578 2.09245 2.00098 1.9375 2.15137C1.78255 2.2972 1.70508 2.50684 1.70508 2.78027V13.3418C1.70508 13.6152 1.78255 13.8249 1.9375 13.9707C2.09245 14.1211 2.31576 14.1963 2.60742 14.1963ZM3.55078 13.6973C3.45964 13.6973 3.38216 13.6676 3.31836 13.6084C3.25911 13.5492 3.22949 13.4717 3.22949 13.376C3.22949 13.2803 3.25911 13.2028 3.31836 13.1436C3.38216 13.0889 3.45964 13.0615 3.55078 13.0615H6.45605C6.5472 13.0615 6.6224 13.0889 6.68164 13.1436C6.74089 13.2028 6.77051 13.2803 6.77051 13.376C6.77051 13.4717 6.74089 13.5492 6.68164 13.6084C6.6224 13.6676 6.5472 13.6973 6.45605 13.6973H3.55078ZM4.17285 3.375C4.03613 3.375 3.91992 3.32943 3.82422 3.23828C3.73307 3.14258 3.6875 3.02637 3.6875 2.88965C3.6875 2.75749 3.73307 2.64583 3.82422 2.55469C3.91992 2.45898 4.03613 2.41113 4.17285 2.41113H5.82715C5.95931 2.41113 6.07096 2.45898 6.16211 2.55469C6.25781 2.64583 6.30566 2.75749 6.30566 2.88965C6.30566 3.02637 6.25781 3.14258 6.16211 3.23828C6.07096 3.32943 5.95931 3.375 5.82715 3.375H4.17285Z"
        fill="currentColor" />
</svg>