<svg width="24" height="25" viewBox="0 0 24 25" fill="none" xmlns="http://www.w3.org/2000/svg">
    <path d="M17.2031 21.8906V10.1016C17.2031 9.66406 17.0781 9.32812 16.8281 9.09375C16.5781 8.85156 16.2227 8.73047 15.7617 8.73047H8.21484C7.75391 8.73047 7.39844 8.85156 7.14844 9.09375C6.90625 9.32812 6.78516 9.66406 6.78516 10.1016V21.8906H5.07422V9.83203C5.07422 8.98828 5.33984 8.30859 5.87109 7.79297C6.41016 7.27734 7.11719 7.01953 7.99219 7.01953H15.9844C16.8594 7.01953 17.5664 7.27734 18.1055 7.79297C18.6445 8.30859 18.9141 8.98828 18.9141 9.83203V21.8906H17.2031ZM10.6992 11.0039C10.4805 11.0039 10.2969 10.9336 10.1484 10.793C10 10.6445 9.92578 10.4648 9.92578 10.2539C9.92578 10.043 10 9.86719 10.1484 9.72656C10.2969 9.57812 10.4805 9.50391 10.6992 9.50391H13.3008C13.5117 9.50391 13.6875 9.57812 13.8281 9.72656C13.9766 9.86719 14.0508 10.043 14.0508 10.2539C14.0508 10.4648 13.9766 10.6445 13.8281 10.793C13.6875 10.9336 13.5117 11.0039 13.3008 11.0039H10.6992ZM12 24.4922C10.3516 24.4922 8.80469 24.1797 7.35938 23.5547C5.91406 22.9375 4.64453 22.082 3.55078 20.9883C2.45703 19.8945 1.59766 18.625 0.972656 17.1797C0.355469 15.7344 0.046875 14.1875 0.046875 12.5391C0.046875 10.8906 0.355469 9.34375 0.972656 7.89844C1.59766 6.45312 2.45703 5.18359 3.55078 4.08984C4.64453 2.98828 5.91406 2.12891 7.35938 1.51172C8.80469 0.894531 10.3516 0.585938 12 0.585938C13.6484 0.585938 15.1953 0.894531 16.6406 1.51172C18.0859 2.12891 19.3555 2.98828 20.4492 4.08984C21.543 5.18359 22.3984 6.45312 23.0156 7.89844C23.6406 9.34375 23.9531 10.8906 23.9531 12.5391C23.9531 14.1875 23.6406 15.7344 23.0156 17.1797C22.3984 18.625 21.543 19.8945 20.4492 20.9883C19.3555 22.082 18.0859 22.9375 16.6406 23.5547C15.1953 24.1797 13.6484 24.4922 12 24.4922ZM12 22.5C13.375 22.5 14.6641 22.2422 15.8672 21.7266C17.0703 21.2109 18.1289 20.4961 19.043 19.582C19.957 18.668 20.6719 17.6094 21.1875 16.4062C21.7031 15.2031 21.9609 13.9141 21.9609 12.5391C21.9609 11.1641 21.7031 9.875 21.1875 8.67188C20.6719 7.46094 19.957 6.40234 19.043 5.49609C18.1289 4.58203 17.0703 3.86719 15.8672 3.35156C14.6641 2.83594 13.375 2.57812 12 2.57812C10.625 2.57812 9.33594 2.83594 8.13281 3.35156C6.92969 3.86719 5.87109 4.58203 4.95703 5.49609C4.04297 6.40234 3.32812 7.46094 2.8125 8.67188C2.29688 9.875 2.03906 11.1641 2.03906 12.5391C2.03906 13.9141 2.29688 15.2031 2.8125 16.4062C3.32812 17.6094 4.04297 18.668 4.95703 19.582C5.87109 20.4961 6.92969 21.2109 8.13281 21.7266C9.33594 22.2422 10.625 22.5 12 22.5Z" fill="black"/>
    </svg>
    