<svg width="24" height="25" viewBox="0 0 24 25" fill="none" xmlns="http://www.w3.org/2000/svg">
    <path d="M0.550781 10.3359C0.550781 9.04688 0.792969 7.83984 1.27734 6.71484C1.76172 5.58203 2.43359 4.58594 3.29297 3.72656C4.15234 2.86719 5.14453 2.19531 6.26953 1.71094C7.40234 1.22656 8.61328 0.984375 9.90234 0.984375C11.1914 0.984375 12.3984 1.22656 13.5234 1.71094C14.6562 2.19531 15.6523 2.86719 16.5117 3.72656C17.3711 4.58594 18.043 5.58203 18.5273 6.71484C19.0117 7.83984 19.2539 9.04688 19.2539 10.3359C19.2539 11.4062 19.082 12.4219 18.7383 13.3828C18.4023 14.3438 17.9336 15.2148 17.332 15.9961L23.0625 21.7617C23.1875 21.8867 23.2812 22.0312 23.3438 22.1953C23.4141 22.3594 23.4492 22.5352 23.4492 22.7227C23.4492 22.9805 23.3906 23.2148 23.2734 23.4258C23.1641 23.6367 23.0078 23.8008 22.8047 23.918C22.6016 24.043 22.3672 24.1055 22.1016 24.1055C21.9141 24.1055 21.7344 24.0703 21.5625 24C21.3984 23.9375 21.2461 23.8398 21.1055 23.707L15.3398 17.9297C14.5742 18.4766 13.7305 18.9062 12.8086 19.2188C11.8867 19.5312 10.918 19.6875 9.90234 19.6875C8.61328 19.6875 7.40234 19.4453 6.26953 18.9609C5.14453 18.4766 4.15234 17.8047 3.29297 16.9453C2.43359 16.0859 1.76172 15.0938 1.27734 13.9688C0.792969 12.8359 0.550781 11.625 0.550781 10.3359ZM2.55469 10.3359C2.55469 11.3516 2.74219 12.3047 3.11719 13.1953C3.5 14.0781 4.02734 14.8555 4.69922 15.5273C5.37891 16.1992 6.16016 16.7266 7.04297 17.1094C7.93359 17.4922 8.88672 17.6836 9.90234 17.6836C10.918 17.6836 11.8672 17.4922 12.75 17.1094C13.6406 16.7266 14.4219 16.1992 15.0938 15.5273C15.7656 14.8555 16.293 14.0781 16.6758 13.1953C17.0586 12.3047 17.25 11.3516 17.25 10.3359C17.25 9.32031 17.0586 8.37109 16.6758 7.48828C16.293 6.59766 15.7656 5.81641 15.0938 5.14453C14.4219 4.46484 13.6406 3.9375 12.75 3.5625C11.8672 3.17969 10.918 2.98828 9.90234 2.98828C8.88672 2.98828 7.93359 3.17969 7.04297 3.5625C6.16016 3.9375 5.37891 4.46484 4.69922 5.14453C4.02734 5.81641 3.5 6.59766 3.11719 7.48828C2.74219 8.37109 2.55469 9.32031 2.55469 10.3359Z" fill="black"/>
    </svg>
    