<svg width="15" height="14" viewBox="0 0 15 14" fill="none" xmlns="http://www.w3.org/2000/svg">
    <path
        d="M2.26074 13.5244C1.87337 13.5244 1.54069 13.4424 1.2627 13.2783C0.984701 13.1143 0.770508 12.891 0.620117 12.6084C0.469727 12.3304 0.394531 12.0182 0.394531 11.6719C0.394531 11.3392 0.483398 11.0202 0.661133 10.7148L5.96582 1.47266C6.139 1.16276 6.36914 0.930339 6.65625 0.775391C6.94336 0.615885 7.24414 0.536133 7.55859 0.536133C7.87305 0.536133 8.17155 0.615885 8.4541 0.775391C8.74121 0.930339 8.97363 1.16276 9.15137 1.47266L14.4561 10.7148C14.5426 10.8652 14.6087 11.0225 14.6543 11.1865C14.6999 11.3506 14.7227 11.5124 14.7227 11.6719C14.7227 12.0182 14.6475 12.3304 14.4971 12.6084C14.3467 12.891 14.1325 13.1143 13.8545 13.2783C13.5765 13.4424 13.2438 13.5244 12.8564 13.5244H2.26074ZM2.26758 12.4512H12.8428C13.0798 12.4512 13.2666 12.3714 13.4033 12.2119C13.5446 12.057 13.6152 11.8747 13.6152 11.665C13.6152 11.5192 13.5788 11.3757 13.5059 11.2344L8.20801 1.99219C8.13509 1.86458 8.03939 1.77344 7.9209 1.71875C7.80697 1.65951 7.6862 1.62988 7.55859 1.62988C7.43099 1.62988 7.30794 1.65951 7.18945 1.71875C7.07096 1.77344 6.97526 1.86458 6.90234 1.99219L1.60449 11.2275C1.56803 11.3005 1.54069 11.3757 1.52246 11.4531C1.50879 11.5306 1.50195 11.6012 1.50195 11.665C1.50195 11.8747 1.57031 12.057 1.70703 12.2119C1.84375 12.3714 2.0306 12.4512 2.26758 12.4512ZM7.55859 8.91016C7.20768 8.91016 7.02767 8.73014 7.01855 8.37012L6.92969 4.75391C6.92513 4.58073 6.97982 4.43717 7.09375 4.32324C7.21224 4.20931 7.36491 4.15234 7.55176 4.15234C7.73405 4.15234 7.88444 4.21159 8.00293 4.33008C8.12598 4.44401 8.18522 4.58757 8.18066 4.76074L8.07812 8.37012C8.07357 8.73014 7.90039 8.91016 7.55859 8.91016ZM7.55859 11.1318C7.35807 11.1318 7.1849 11.0635 7.03906 10.9268C6.89323 10.7855 6.82031 10.6169 6.82031 10.4209C6.82031 10.2249 6.89323 10.0586 7.03906 9.92188C7.1849 9.7806 7.35807 9.70996 7.55859 9.70996C7.75911 9.70996 7.93229 9.77832 8.07812 9.91504C8.22396 10.0518 8.29688 10.2204 8.29688 10.4209C8.29688 10.6214 8.22168 10.79 8.07129 10.9268C7.92546 11.0635 7.75456 11.1318 7.55859 11.1318Z"
        fill="#FF8800" />
</svg>