<svg width="32" height="32" viewBox="0 0 32 32" fill="none" xmlns="http://www.w3.org/2000/svg">
    <rect width="32" height="32" rx="8" fill="#1CBC11"/>
    <path d="M8.87903 20.8838C6.63782 20.8838 5.23706 19.3127 5.23706 16.7859C5.23706 14.2755 6.6543 12.6935 8.86804 12.6935C10.3237 12.6935 11.4883 13.4021 11.9827 14.5721C12.0596 14.7314 12.098 14.8962 12.098 15.0446C12.098 15.3741 11.8783 15.5884 11.5487 15.5884C11.2576 15.5884 11.0653 15.4456 10.928 15.127C10.5599 14.2426 9.77991 13.7701 8.86804 13.7701C7.42883 13.7701 6.495 14.9512 6.495 16.7859C6.495 18.6371 7.41785 19.8071 8.87354 19.8071C9.84033 19.8071 10.5819 19.3951 10.95 18.5382C11.0818 18.2471 11.2411 18.1262 11.5103 18.1262C11.8453 18.1262 12.0761 18.3569 12.0761 18.681C12.0761 18.8513 12.0321 19.0106 11.9442 19.1919C11.4334 20.2631 10.3512 20.8838 8.87903 20.8838ZM16.0476 20.8838C14.5095 20.8838 13.4548 20.2191 13.1472 19.2963C13.1088 19.1754 13.0813 19.0436 13.0813 18.9117C13.0813 18.5547 13.301 18.324 13.6361 18.324C13.9163 18.324 14.0975 18.4503 14.2184 18.7469C14.4656 19.4885 15.1852 19.8346 16.1025 19.8346C17.1078 19.8346 17.8274 19.3182 17.8274 18.6096C17.8274 17.9944 17.4099 17.6099 16.3497 17.3792L15.4818 17.1979C13.8998 16.8628 13.1802 16.1267 13.1802 14.9841C13.1802 13.6273 14.3722 12.6935 16.0586 12.6935C17.4264 12.6935 18.5031 13.3362 18.8107 14.3964C18.8381 14.4733 18.8546 14.5667 18.8546 14.682C18.8546 15.0006 18.6294 15.2094 18.3108 15.2094C18.0142 15.2094 17.8329 15.072 17.7065 14.7864C17.4374 14.0558 16.8331 13.7427 16.0421 13.7427C15.1138 13.7427 14.4271 14.1931 14.4271 14.9182C14.4271 15.495 14.8391 15.8795 15.8663 16.0992L16.7288 16.2805C18.3932 16.6321 19.0743 17.2968 19.0743 18.4503C19.0743 19.9445 17.8988 20.8838 16.0476 20.8838ZM23.0569 20.8398C22.6229 20.8398 22.3757 20.6531 22.2109 20.2026L19.7115 13.6383C19.6676 13.512 19.6456 13.4021 19.6456 13.2922C19.6456 12.9626 19.8983 12.7374 20.2719 12.7374C20.585 12.7374 20.7772 12.8802 20.8816 13.1989L23.0514 19.3677H23.0844L25.2541 13.1934C25.364 12.8693 25.5343 12.7374 25.8474 12.7374C26.2155 12.7374 26.4736 12.9681 26.4736 13.2867C26.4736 13.3911 26.4517 13.501 26.4077 13.6218L23.9028 20.2081C23.7325 20.6586 23.4908 20.8398 23.0569 20.8398Z" fill="white"/>
    </svg>
    